# xmcd
# Copyright (C) 1995-1998 Ti Kan
#
# Track frame offsets:
#       150
#       32241
#       67717
#       96597
#       132336
#       168140
#       197954
#       233164
#       269179
#       313897
#
# Disc length: 4781 seconds
#
# Revision: 0
# Processed by: cddbd v1.5.2PL0 Copyright (c) Steve Scherf et al.
# Submitted via: CD-Transfer v1.0
#
DISCID=9412ab0a
DTITLE=Metallica - J. Hatfield, K. Hammet, R. Trujilo, L. Ulrich
DYEAR=08
DGENRE=
TTITLE0=This Was Just Your Life
TTITLE1=End Of The Line, The
TTITLE2=Broken, Beat And Scarred
TTITLE3=Day That Never Comes, The
TTITLE4=All Nightmare Long
TTITLE5=Cyanide
TTITLE6=Unforgiven Iii, The
TTITLE7=Judas Kiss, The
TTITLE8=Suicide And Redemption K. H.
TTITLE9=Suicide And Redemption J. H.
EXTD=
EXTT0=
EXTT1=
EXTT2=
EXTT3=
EXTT4=
EXTT5=
EXTT6=
EXTT7=
EXTT8=
EXTT9=
PLAYORDER=
